<svg xmlns="http://www.w3.org/2000/svg" xmlns:xlink="http://www.w3.org/1999/xlink" contentStyleType="text/css" data-diagram-type="SEQUENCE" height="1165px" preserveAspectRatio="none" style="width:852px;height:1165px;background:#FFFFFF;" version="1.1" viewBox="0 0 852 1165" width="852px" zoomAndPan="magnify"><title>Publier un commentaire sur un &#233;v&#233;nement</title><defs/><g><text fill="#000000" font-family="sans-serif" font-size="14" font-weight="bold" lengthAdjust="spacing" textLength="337.9004" x="274.7688" y="27.9951">Publier un commentaire sur un &#233;v&#233;nement</text><g><title>Utilisateur</title><rect fill="#000000" fill-opacity="0.00000" height="965.6563" width="8" x="59.5049" y="118.5938"/><line style="stroke:#000000;stroke-width:0.5;stroke-dasharray:5.0,5.0;" x1="63.0049" x2="63.0049" y1="118.5938" y2="1084.25"/></g><g><title>Client</title><rect fill="#000000" fill-opacity="0.00000" height="965.6563" width="8" x="317.9238" y="118.5938"/><line style="stroke:#000000;stroke-width:0.5;stroke-dasharray:5.0,5.0;" x1="321.4238" x2="321.4238" y1="118.5938" y2="1084.25"/></g><g><title/><rect fill="#FFFFFF" height="452.9922" style="stroke:#000000;stroke-width:1;" width="10" x="316.4238" y="190.8594"/></g><g><title/><rect fill="#FFFFFF" height="276.1953" style="stroke:#000000;stroke-width:1;" width="10" x="316.4238" y="716.1172"/></g><g><title>API</title><rect fill="#000000" fill-opacity="0.00000" height="965.6563" width="8" x="593.5366" y="118.5938"/><line style="stroke:#000000;stroke-width:0.5;stroke-dasharray:5.0,5.0;" x1="597.0366" x2="597.0366" y1="118.5938" y2="1084.25"/></g><g><title/><rect fill="#FFFFFF" height="87.3984" style="stroke:#000000;stroke-width:1;" width="10" x="592.0366" y="219.9922"/></g><g><title/><rect fill="#FFFFFF" height="87.3984" style="stroke:#000000;stroke-width:1;" width="10" x="592.0366" y="410.7891"/></g><g><title/><rect fill="#FFFFFF" height="87.3984" style="stroke:#000000;stroke-width:1;" width="10" x="592.0366" y="527.3203"/></g><g><title/><rect fill="#FFFFFF" height="145.6641" style="stroke:#000000;stroke-width:1;" width="10" x="592.0366" y="774.3828"/></g><g><title>D B</title><rect fill="#000000" fill-opacity="0.00000" height="965.6563" width="8" x="811.938" y="118.5938"/><line style="stroke:#000000;stroke-width:0.5;stroke-dasharray:5.0,5.0;" x1="815.438" x2="815.438" y1="118.5938" y2="1084.25"/></g><g><title/><rect fill="#FFFFFF" height="29.1328" style="stroke:#000000;stroke-width:1;" width="10" x="810.438" y="249.125"/></g><g><title/><rect fill="#FFFFFF" height="29.1328" style="stroke:#000000;stroke-width:1;" width="10" x="810.438" y="439.9219"/></g><g><title/><rect fill="#FFFFFF" height="29.1328" style="stroke:#000000;stroke-width:1;" width="10" x="810.438" y="556.4531"/></g><g><title/><rect fill="#FFFFFF" height="29.1328" style="stroke:#000000;stroke-width:1;" width="10" x="810.438" y="803.5156"/></g><g><title/><rect fill="#FFFFFF" height="29.1328" style="stroke:#000000;stroke-width:1;" width="10" x="810.438" y="861.7813"/></g><text fill="#000000" font-family="sans-serif" font-size="14" lengthAdjust="spacing" textLength="72.0098" x="24" y="115.292">Utilisateur</text><ellipse cx="63.0049" cy="50.7969" fill="#E2E2F0" rx="8" ry="8" style="stroke:#181818;stroke-width:0.5;"/><path d="M63.0049,58.7969 L63.0049,85.7969 M50.0049,66.7969 L76.0049,66.7969 M63.0049,85.7969 L50.0049,100.7969 M63.0049,85.7969 L76.0049,100.7969" fill="none" style="stroke:#181818;stroke-width:0.5;"/><rect fill="#E2E2F0" height="30.2969" rx="2.5" ry="2.5" style="stroke:#000000;stroke-width:0.5;" width="54.5303" x="294.1587" y="87.2969"/><text fill="#000000" font-family="sans-serif" font-size="14" lengthAdjust="spacing" textLength="40.5303" x="301.1587" y="107.292">Client</text><rect fill="#E2E2F0" height="30.2969" rx="2.5" ry="2.5" style="stroke:#000000;stroke-width:0.5;" width="36.1484" x="578.9624" y="87.2969"/><text fill="#000000" font-family="sans-serif" font-size="14" lengthAdjust="spacing" textLength="22.1484" x="585.9624" y="107.292">API</text><rect fill="#E2E2F0" height="30.2969" rx="2.5" ry="2.5" style="stroke:#000000;stroke-width:0.5;" width="38.835" x="796.0205" y="87.2969"/><text fill="#000000" font-family="sans-serif" font-size="14" lengthAdjust="spacing" textLength="24.835" x="803.0205" y="107.292">D B</text><text fill="#000000" font-family="sans-serif" font-size="14" lengthAdjust="spacing" textLength="72.0098" x="24" y="1157.2451">Utilisateur</text><ellipse cx="63.0049" cy="1092.75" fill="#E2E2F0" rx="8" ry="8" style="stroke:#181818;stroke-width:0.5;"/><path d="M63.0049,1100.75 L63.0049,1127.75 M50.0049,1108.75 L76.0049,1108.75 M63.0049,1127.75 L50.0049,1142.75 M63.0049,1127.75 L76.0049,1142.75" fill="none" style="stroke:#181818;stroke-width:0.5;"/><rect fill="#E2E2F0" height="30.2969" rx="2.5" ry="2.5" style="stroke:#000000;stroke-width:0.5;" width="54.5303" x="294.1587" y="1084.25"/><text fill="#000000" font-family="sans-serif" font-size="14" lengthAdjust="spacing" textLength="40.5303" x="301.1587" y="1104.2451">Client</text><rect fill="#E2E2F0" height="30.2969" rx="2.5" ry="2.5" style="stroke:#000000;stroke-width:0.5;" width="36.1484" x="578.9624" y="1084.25"/><text fill="#000000" font-family="sans-serif" font-size="14" lengthAdjust="spacing" textLength="22.1484" x="585.9624" y="1104.2451">API</text><rect fill="#E2E2F0" height="30.2969" rx="2.5" ry="2.5" style="stroke:#000000;stroke-width:0.5;" width="38.835" x="796.0205" y="1084.25"/><text fill="#000000" font-family="sans-serif" font-size="14" lengthAdjust="spacing" textLength="24.835" x="803.0205" y="1104.2451">D B</text><rect fill="#EEEEEE" height="3" style="stroke:#EEEEEE;stroke-width:1;" width="840.438" x="5" y="147.1602"/><line style="stroke:#000000;stroke-width:1;" x1="5" x2="845.438" y1="147.1602" y2="147.1602"/><line style="stroke:#000000;stroke-width:1;" x1="5" x2="845.438" y1="150.1602" y2="150.1602"/><rect fill="#EEEEEE" height="23.1328" style="stroke:#000000;stroke-width:2;" width="137.5" x="356.469" y="136.5938"/><text fill="#000000" font-family="sans-serif" font-size="13" font-weight="bold" lengthAdjust="spacing" textLength="118.9741" x="362.469" y="152.6606">Authentification</text><polygon fill="#181818" points="304.4238,186.8594,314.4238,190.8594,304.4238,194.8594,308.4238,190.8594" style="stroke:#181818;stroke-width:1;"/><line style="stroke:#181818;stroke-width:1;" x1="63.0049" x2="310.4238" y1="190.8594" y2="190.8594"/><text fill="#000000" font-family="sans-serif" font-size="13" lengthAdjust="spacing" textLength="189.9028" x="70.0049" y="185.7935">Acc&#232;de &#224; la page &#233;v&#233;nement</text><polygon fill="#181818" points="580.0366,215.9922,590.0366,219.9922,580.0366,223.9922,584.0366,219.9922" style="stroke:#181818;stroke-width:1;"/><line style="stroke:#181818;stroke-width:1;" x1="326.4238" x2="586.0366" y1="219.9922" y2="219.9922"/><text fill="#000000" font-family="sans-serif" font-size="13" lengthAdjust="spacing" textLength="208.4443" x="333.4238" y="214.9263">V&#233;rification de l'authentification</text><polygon fill="#181818" points="798.438,245.125,808.438,249.125,798.438,253.125,802.438,249.125" style="stroke:#181818;stroke-width:1;"/><line style="stroke:#181818;stroke-width:1;" x1="602.0366" x2="804.438" y1="249.125" y2="249.125"/><text fill="#000000" font-family="sans-serif" font-size="13" lengthAdjust="spacing" textLength="168.5303" x="609.0366" y="244.0591">Validation des credentials</text><polygon fill="#181818" points="613.0366,274.2578,603.0366,278.2578,613.0366,282.2578,609.0366,278.2578" style="stroke:#181818;stroke-width:1;"/><line style="stroke:#181818;stroke-width:1;stroke-dasharray:2.0,2.0;" x1="607.0366" x2="809.438" y1="278.2578" y2="278.2578"/><text fill="#000000" font-family="sans-serif" font-size="13" lengthAdjust="spacing" textLength="109.4717" x="619.0366" y="273.1919">Statut utilisateur</text><polygon fill="#181818" points="337.4238,303.3906,327.4238,307.3906,337.4238,311.3906,333.4238,307.3906" style="stroke:#181818;stroke-width:1;"/><line style="stroke:#181818;stroke-width:1;stroke-dasharray:2.0,2.0;" x1="331.4238" x2="591.0366" y1="307.3906" y2="307.3906"/><text fill="#000000" font-family="sans-serif" font-size="13" lengthAdjust="spacing" textLength="191.1597" x="343.4238" y="302.3247">Confirmation authentification</text><path d="M8,319.3906 L72.4429,319.3906 L72.4429,326.5234 L62.4429,336.5234 L8,336.5234 L8,319.3906" fill="#EEEEEE" style="stroke:#000000;stroke-width:1.5;"/><rect fill="none" height="740.8594" style="stroke:#000000;stroke-width:1.5;" width="828.438" x="8" y="319.3906"/><text fill="#000000" font-family="sans-serif" font-size="13" font-weight="bold" lengthAdjust="spacing" textLength="19.4429" x="23" y="332.4575">alt</text><text fill="#000000" font-family="sans-serif" font-size="11" font-weight="bold" lengthAdjust="spacing" textLength="94.2573" x="87.4429" y="331.6011">[Si authentifi&#233;]</text><line style="stroke:#000000;stroke-width:1;stroke-dasharray:2.0,2.0;" x1="8" x2="836.438" y1="1011.3125" y2="1011.3125"/><text fill="#000000" font-family="sans-serif" font-size="11" font-weight="bold" lengthAdjust="spacing" textLength="121.3062" x="13" y="1023.5229">[Si non authentifi&#233;]</text><rect fill="#EEEEEE" height="3" style="stroke:#EEEEEE;stroke-width:1;" width="840.438" x="5" y="367.0898"/><line style="stroke:#000000;stroke-width:1;" x1="5" x2="845.438" y1="367.0898" y2="367.0898"/><line style="stroke:#000000;stroke-width:1;" x1="5" x2="845.438" y1="370.0898" y2="370.0898"/><rect fill="#EEEEEE" height="23.1328" style="stroke:#000000;stroke-width:2;" width="205.8325" x="322.3027" y="356.5234"/><text fill="#000000" font-family="sans-serif" font-size="13" font-weight="bold" lengthAdjust="spacing" textLength="187.3066" x="328.3027" y="372.5903">Affichage de l'&#233;v&#233;nement</text><polygon fill="#181818" points="580.0366,406.7891,590.0366,410.7891,580.0366,414.7891,584.0366,410.7891" style="stroke:#181818;stroke-width:1;"/><line style="stroke:#181818;stroke-width:1;" x1="326.4238" x2="586.0366" y1="410.7891" y2="410.7891"/><text fill="#000000" font-family="sans-serif" font-size="13" lengthAdjust="spacing" textLength="238.71" x="333.4238" y="405.7231">Demande les d&#233;tails de l'&#233;v&#233;nement</text><polygon fill="#181818" points="798.438,435.9219,808.438,439.9219,798.438,443.9219,802.438,439.9219" style="stroke:#181818;stroke-width:1;"/><line style="stroke:#181818;stroke-width:1;" x1="602.0366" x2="804.438" y1="439.9219" y2="439.9219"/><text fill="#000000" font-family="sans-serif" font-size="13" lengthAdjust="spacing" textLength="164.9375" x="609.0366" y="434.856">R&#233;cup&#233;ration &#233;v&#233;nement</text><polygon fill="#181818" points="613.0366,465.0547,603.0366,469.0547,613.0366,473.0547,609.0366,469.0547" style="stroke:#181818;stroke-width:1;"/><line style="stroke:#181818;stroke-width:1;stroke-dasharray:2.0,2.0;" x1="607.0366" x2="809.438" y1="469.0547" y2="469.0547"/><text fill="#000000" font-family="sans-serif" font-size="13" lengthAdjust="spacing" textLength="135.2686" x="619.0366" y="463.9888">Donn&#233;es &#233;v&#233;nement</text><polygon fill="#181818" points="337.4238,494.1875,327.4238,498.1875,337.4238,502.1875,333.4238,498.1875" style="stroke:#181818;stroke-width:1;"/><line style="stroke:#181818;stroke-width:1;stroke-dasharray:2.0,2.0;" x1="331.4238" x2="591.0366" y1="498.1875" y2="498.1875"/><text fill="#000000" font-family="sans-serif" font-size="13" lengthAdjust="spacing" textLength="123.1255" x="343.4238" y="493.1216">D&#233;tails &#233;v&#233;nement</text><polygon fill="#181818" points="580.0366,523.3203,590.0366,527.3203,580.0366,531.3203,584.0366,527.3203" style="stroke:#181818;stroke-width:1;"/><line style="stroke:#181818;stroke-width:1;" x1="326.4238" x2="586.0366" y1="527.3203" y2="527.3203"/><text fill="#000000" font-family="sans-serif" font-size="13" lengthAdjust="spacing" textLength="246.6128" x="333.4238" y="522.2544">Demande les commentaires existants</text><polygon fill="#181818" points="798.438,552.4531,808.438,556.4531,798.438,560.4531,802.438,556.4531" style="stroke:#181818;stroke-width:1;"/><line style="stroke:#181818;stroke-width:1;" x1="602.0366" x2="804.438" y1="556.4531" y2="556.4531"/><text fill="#000000" font-family="sans-serif" font-size="13" lengthAdjust="spacing" textLength="184.4692" x="609.0366" y="551.3872">R&#233;cup&#233;ration commentaires</text><polygon fill="#181818" points="613.0366,581.5859,603.0366,585.5859,613.0366,589.5859,609.0366,585.5859" style="stroke:#181818;stroke-width:1;"/><line style="stroke:#181818;stroke-width:1;stroke-dasharray:2.0,2.0;" x1="607.0366" x2="809.438" y1="585.5859" y2="585.5859"/><text fill="#000000" font-family="sans-serif" font-size="13" lengthAdjust="spacing" textLength="128.3115" x="619.0366" y="580.52">Liste commentaires</text><polygon fill="#181818" points="337.4238,610.7188,327.4238,614.7188,337.4238,618.7188,333.4238,614.7188" style="stroke:#181818;stroke-width:1;"/><line style="stroke:#181818;stroke-width:1;stroke-dasharray:2.0,2.0;" x1="331.4238" x2="591.0366" y1="614.7188" y2="614.7188"/><text fill="#000000" font-family="sans-serif" font-size="13" lengthAdjust="spacing" textLength="154.1973" x="343.4238" y="609.6528">R&#233;cup&#233;ration de la liste</text><polygon fill="#181818" points="74.0049,639.8516,64.0049,643.8516,74.0049,647.8516,70.0049,643.8516" style="stroke:#181818;stroke-width:1;"/><line style="stroke:#181818;stroke-width:1;stroke-dasharray:2.0,2.0;" x1="68.0049" x2="315.4238" y1="643.8516" y2="643.8516"/><text fill="#000000" font-family="sans-serif" font-size="13" lengthAdjust="spacing" textLength="186.0054" x="80.0049" y="638.7856">Affichage des commentaires</text><rect fill="#EEEEEE" height="3" style="stroke:#EEEEEE;stroke-width:1;" width="840.438" x="5" y="672.418"/><line style="stroke:#000000;stroke-width:1;" x1="5" x2="845.438" y1="672.418" y2="672.418"/><line style="stroke:#000000;stroke-width:1;" x1="5" x2="845.438" y1="675.418" y2="675.418"/><rect fill="#EEEEEE" height="23.1328" style="stroke:#000000;stroke-width:2;" width="224.9453" x="312.7463" y="661.8516"/><text fill="#000000" font-family="sans-serif" font-size="13" font-weight="bold" lengthAdjust="spacing" textLength="206.4194" x="318.7463" y="677.9185">Publication du commentaire</text><polygon fill="#181818" points="304.4238,712.1172,314.4238,716.1172,304.4238,720.1172,308.4238,716.1172" style="stroke:#181818;stroke-width:1;"/><line style="stroke:#181818;stroke-width:1;" x1="63.0049" x2="310.4238" y1="716.1172" y2="716.1172"/><text fill="#000000" font-family="sans-serif" font-size="13" lengthAdjust="spacing" textLength="200.5098" x="70.0049" y="711.0513">Saisit le texte du commentaire</text><polygon fill="#181818" points="304.4238,741.25,314.4238,745.25,304.4238,749.25,308.4238,745.25" style="stroke:#181818;stroke-width:1;"/><line style="stroke:#181818;stroke-width:1;" x1="63.0049" x2="310.4238" y1="745.25" y2="745.25"/><text fill="#000000" font-family="sans-serif" font-size="13" lengthAdjust="spacing" textLength="192.5942" x="70.0049" y="740.1841">Clique "Publier commentaire"</text><polygon fill="#181818" points="580.0366,770.3828,590.0366,774.3828,580.0366,778.3828,584.0366,774.3828" style="stroke:#181818;stroke-width:1;"/><line style="stroke:#181818;stroke-width:1;" x1="326.4238" x2="586.0366" y1="774.3828" y2="774.3828"/><text fill="#000000" font-family="sans-serif" font-size="13" lengthAdjust="spacing" textLength="207.6128" x="333.4238" y="769.3169">Envoi du nouveau commentaire</text><polygon fill="#181818" points="798.438,799.5156,808.438,803.5156,798.438,807.5156,802.438,803.5156" style="stroke:#181818;stroke-width:1;"/><line style="stroke:#181818;stroke-width:1;" x1="602.0366" x2="804.438" y1="803.5156" y2="803.5156"/><text fill="#000000" font-family="sans-serif" font-size="13" lengthAdjust="spacing" textLength="189.4014" x="609.0366" y="798.4497">Sauvegarde du commentaire</text><polygon fill="#181818" points="613.0366,828.6484,603.0366,832.6484,613.0366,836.6484,609.0366,832.6484" style="stroke:#181818;stroke-width:1;"/><line style="stroke:#181818;stroke-width:1;stroke-dasharray:2.0,2.0;" x1="607.0366" x2="809.438" y1="832.6484" y2="832.6484"/><text fill="#000000" font-family="sans-serif" font-size="13" lengthAdjust="spacing" textLength="145.3359" x="619.0366" y="827.5825">Confirmation insertion</text><polygon fill="#181818" points="798.438,857.7813,808.438,861.7813,798.438,865.7813,802.438,861.7813" style="stroke:#181818;stroke-width:1;"/><line style="stroke:#181818;stroke-width:1;" x1="602.0366" x2="804.438" y1="861.7813" y2="861.7813"/><text fill="#000000" font-family="sans-serif" font-size="13" lengthAdjust="spacing" textLength="176.6045" x="609.0366" y="856.7153">Mise &#224; jour de l'&#233;v&#233;nement</text><polygon fill="#181818" points="613.0366,886.9141,603.0366,890.9141,613.0366,894.9141,609.0366,890.9141" style="stroke:#181818;stroke-width:1;"/><line style="stroke:#181818;stroke-width:1;stroke-dasharray:2.0,2.0;" x1="607.0366" x2="809.438" y1="890.9141" y2="890.9141"/><text fill="#000000" font-family="sans-serif" font-size="13" lengthAdjust="spacing" textLength="160.894" x="619.0366" y="885.8481">Confirmation mise &#224; jour</text><polygon fill="#181818" points="337.4238,916.0469,327.4238,920.0469,337.4238,924.0469,333.4238,920.0469" style="stroke:#181818;stroke-width:1;"/><line style="stroke:#181818;stroke-width:1;stroke-dasharray:2.0,2.0;" x1="331.4238" x2="591.0366" y1="920.0469" y2="920.0469"/><text fill="#000000" font-family="sans-serif" font-size="13" lengthAdjust="spacing" textLength="157.7646" x="343.4238" y="914.981">Succ&#232;s de la publication</text><rect fill="#EEEEEE" height="3" style="stroke:#EEEEEE;stroke-width:1;" width="840.438" x="5" y="948.6133"/><line style="stroke:#000000;stroke-width:1;" x1="5" x2="845.438" y1="948.6133" y2="948.6133"/><line style="stroke:#000000;stroke-width:1;" x1="5" x2="845.438" y1="951.6133" y2="951.6133"/><rect fill="#EEEEEE" height="23.1328" style="stroke:#000000;stroke-width:2;" width="104.4541" x="372.9919" y="938.0469"/><text fill="#000000" font-family="sans-serif" font-size="13" font-weight="bold" lengthAdjust="spacing" textLength="85.9282" x="378.9919" y="954.1138">Notification</text><line style="stroke:#181818;stroke-width:1;" x1="64.0049" x2="74.0049" y1="992.3125" y2="988.3125"/><line style="stroke:#181818;stroke-width:1;" x1="64.0049" x2="74.0049" y1="992.3125" y2="996.3125"/><line style="stroke:#181818;stroke-width:1;stroke-dasharray:2.0,2.0;" x1="63.0049" x2="315.4238" y1="992.3125" y2="992.3125"/><text fill="#000000" font-family="sans-serif" font-size="13" lengthAdjust="spacing" textLength="215.8584" x="80.0049" y="987.2466">Commentaire publi&#233; avec succ&#232;s</text><polygon fill="#181818" points="74.0049,1048.25,64.0049,1052.25,74.0049,1056.25,70.0049,1052.25" style="stroke:#181818;stroke-width:1;"/><line style="stroke:#181818;stroke-width:1;stroke-dasharray:2.0,2.0;" x1="68.0049" x2="320.4238" y1="1052.25" y2="1052.25"/><text fill="#000000" font-family="sans-serif" font-size="13" lengthAdjust="spacing" textLength="234.4189" x="80.0049" y="1047.1841">Redirection vers page de connexion</text><!--SRC=[ZLLBRjim4Dth55Dlkie50hX0R7LH82s26Er-8eqTDXIfycCOFKsNrJbqiGvfAoPbIwu1MRR8Ds_UuypeGsjmro0uqh_16K-5VHEgHOCDMFhbILMqqeULDZMPjPRQm8l4wktAjaUnvKlH_-nzGkD49LfKxd9xuOIJ14_-HGeou1LKkcb8EHI6mFhugE_sVQSeF2wmSWp-xeGK5XrvKxJd-B1OSnZb5e0MZZ_pvOUdBt6Dx_b22QkuKAwAOhc41-zU6Iosea8dj8BbiaWuuUxJAVmzF5HL_xScwF-0H6XnH-DynPv1Gph7MmZ0ETp3ZxupPnOE8p_YYFiS8cJDLm2NAyQY5FK0j50PgWCEfJr3M4-vWhk1RkFGUGS-iQ-cT7CCdwXRQxKLfZcoN6IMO4Dk1Ke76v7iwxi2-1CStJBgDRWJHIOM1M_3ff4p9JMembwMLlST5uIq5zW8p7883-9NOjHptrM-PQUFCYRnh3_yJmqhjL9znocCGRbjxuI9TUMGz0mqotZ6WAGfBD11MCTLQw-hdnQUHhcf_959w19oM_U8D2X0a27QbFf1E0T9ckm-gnaxcygfkTwjv8AB8sNeAv-DbLF1JJJq1eKLZctdGNdWs3auzotXdOZ6Tnw3i1WcN19gCNdqdzLUYq2ijDyJpYHmvT0to9WTygITJVtAaMVDBfGb4xly-h6FQRyA6uVWJyq6pFVfBUec2NMJFJqv7sQnFPLSUow0sRRZMlccyr6V5-MeAjT99KMElWFSKyLlgqW_LviaMHbFI9LDqzEKd6g3PwgPguh9xSdOuqkc3isf50-3ItqdIbBrFm00]--></g></svg>